<?xml version="1.0" encoding="UTF-8" standalone="no"?>
<!DOCTYPE svg PUBLIC "-//W3C//DTD SVG 1.1//EN" "http://www.w3.org/Graphics/SVG/1.1/DTD/svg11.dtd">
<svg version="1.1" xmlns="http://www.w3.org/2000/svg" xmlns:xlink="http://www.w3.org/1999/xlink" preserveAspectRatio="xMidYMid meet" viewBox="127.2272727272728 99.62121212121207 411.57575757575745 411.5757575757575" width="407.58" height="407.58"><defs><path d="M535.8 304.41C535.8 416.88 444.49 508.2 332.02 508.2C219.54 508.2 128.23 416.88 128.23 304.41C128.23 191.94 219.54 100.62 332.02 100.62C444.49 100.62 535.8 191.94 535.8 304.41Z" id="cXrkngchq"></path><path d="M379.5 210.3L354.5 253.6L329.5 210.3L304.5 167L354.5 167L404.5 167L379.5 210.3Z" id="c7qyKEslD"></path><path d="M327 210.3L352 253.6L302 253.6L252 253.6L277 210.3L302 167L327 210.3Z" id="f4VhmKznoT"></path><path d="M327 299.3L302 342.6L277 299.3L252 256L302 256L352 256L327 299.3Z" id="c6A5jyio7"></path><path d="M379.5 299.3L404.5 342.6L354.5 342.6L304.5 342.6L329.5 299.3L354.5 256L379.5 299.3Z" id="d7Lc35TJK0"></path><path d="M380 388.31L355 431.61L330 388.31L305 345.01L355 345L405 345.01L380 388.31Z" id="bFyuX2CyY"></path><path d="M327 388.3L352 431.6L302 431.6L252 431.6L277 388.3L302 345L327 388.3Z" id="alDvOG8VV"></path></defs><g><g><use xlink:href="#cXrkngchq" opacity="1" fill="#313244" fill-opacity="1"></use></g><g><use xlink:href="#c7qyKEslD" opacity="1" fill="#ffffff" fill-opacity="1"></use></g><g><use xlink:href="#f4VhmKznoT" opacity="1" fill="#ffffff" fill-opacity="1"></use></g><g><use xlink:href="#c6A5jyio7" opacity="1" fill="#ffffff" fill-opacity="1"></use></g><g><use xlink:href="#d7Lc35TJK0" opacity="1" fill="#ffffff" fill-opacity="1"></use></g><g><use xlink:href="#bFyuX2CyY" opacity="1" fill="#ffffff" fill-opacity="1"></use></g><g><use xlink:href="#alDvOG8VV" opacity="1" fill="#ffffff" fill-opacity="1"></use></g></g></svg>