<svg width="522" height="522" viewBox="0 0 522 522" xmlns="http://www.w3.org/2000/svg">
 <g>
   <path id="svg_1" fill-rule="nonzero" fill="rgb(34.901961%,35.686275%,48.235294%)" d="m301.972172,189.667974l-67.22266,-116.42969c-1.05469,-1.83594 -1.05078,-4.09766 0.01172,-5.9336c1.05859,-1.83593 3.01953,-2.96484 5.14062,-2.96484l124.12891,0c2.12109,0 4.08203,1.13281 5.14063,2.97266c1.05859,1.83593 1.05859,4.10156 0,5.9375l-67.19922,116.41797zm0,0"/>
   <path id="svg_2" fill-rule="nonzero" fill="rgb(25.882353%,27.058824%,37.647059%)" d="m295.382322,192.640624l-134.42968,0c-2.125,0 -4.08985,-1.1289 -5.15235,-2.96875c-1.0625,-1.83594 -1.0625,-4.10156 0,-5.9414l62.08985,-107.51172c1.0625,-1.83203 3.01953,-2.96094 5.14062,-2.96094c2.12109,0 4.07813,1.12891 5.14063,2.96094l67.21875,116.42187l-0.00782,0zm0,0"/>
   <path id="svg_3" fill-rule="nonzero" fill="rgb(19.215686%,19.607843%,26.666667%)" d="m220.050292,324.410154l-67.21875,-116.42187c-1.0625,-1.83594 -1.0625,-4.10156 0,-5.94141c1.0625,-1.83594 3.02735,-2.96875 5.14844,-2.96875l134.42969,0l-72.35938,125.33203zm142.5,0l-134.42969,0l72.35938,-125.33203l67.22266,116.42188c1.05468,1.83984 1.05078,4.10156 -0.01172,5.93359c-1.0625,1.83594 -3.01953,2.96484 -5.14063,2.96484l0,0.01172zm0,0"/>
   <path id="svg_4" fill-rule="nonzero" fill="rgb(25.882353%,27.058824%,37.647059%)" d="m294.581542,447.281254l-67.22265,-116.42188l134.43359,0c2.12109,0 4.08594,1.12891 5.14844,2.96875c1.0625,1.83594 1.0625,4.10156 0,5.94141l-62.07032,107.51172c-1.05859,1.84375 -3.02343,2.98047 -5.14843,2.98047c-2.12891,0 -4.09375,-1.13672 -5.15235,-2.98047l0.01172,0zm0,0"/>
   <path id="svg_5" fill-rule="nonzero" fill="rgb(34.901961%,35.686275%,48.235294%)" d="m282.120602,457.660154l-124.1289,0c-2.1211,0 -4.08203,-1.1289 -5.14063,-2.96484c-1.0625,-1.83594 -1.0664,-4.09766 -0.01172,-5.93359l67.19141,-116.42188l67.21875,116.41016c1.0625,1.83593 1.0625,4.10156 0.00391,5.9375c-1.0625,1.83984 -3.01953,2.97265 -5.14453,2.97265l0.01171,0zm0,0"/>
 </g>
</svg>